<svg version="1.2" xmlns="http://www.w3.org/2000/svg" viewBox="0 0 1080 1080" width="1080" height="1080">
	<title>New Project</title>
	<style>
		.s0 { fill: #ecf39e } 
		.s1 { fill: #242424 } 
	</style>
	<rect width="1080" height="1080" id="Color Fill 1" style="fill: #242424"/>
	<path id="Shape 3" class="s0" d="m251.5 829c-54.5 0-98.5-44-98.5-98.5 0-54.5 44-98.5 98.5-98.5 54.5 0 98.5 44 98.5 98.5 0 54.5-44 98.5-98.5 98.5z"/>
	<path id="Shape 3 copy" class="s0" d="m828.5 625c-54.5 0-98.5-44-98.5-98.5 0-54.5 44-98.5 98.5-98.5 54.5 0 98.5 44 98.5 98.5 0 54.5-44 98.5-98.5 98.5z"/>
	<path id="Shape 3 copy 2" class="s0" d="m539.5 421c-54.5 0-98.5-44-98.5-98.5 0-54.5 44-98.5 98.5-98.5 54.5 0 98.5 44 98.5 98.5 0 54.5-44 98.5-98.5 98.5z"/>
	<path id="Shape 1" class="s0" d="m213 27h74v1003h-74z"/>
	<path id="Shape 1 copy" class="s0" d="m503 21h74v1003h-74z"/>
	<path id="Shape 1 copy 2" class="s0" d="m790 16h74v1003h-74z"/>
	<path id="Shape 2" class="s1" d="m252 804c-40.9 0-74-33.1-74-74 0-40.9 33.1-74 74-74 40.9 0 74 33.1 74 74 0 40.9-33.1 74-74 74z"/>
	<path id="Shape 2 copy" class="s1" d="m540 395c-40.9 0-74-33.1-74-74 0-40.9 33.1-74 74-74 40.9 0 74 33.1 74 74 0 40.9-33.1 74-74 74z"/>
	<path id="Shape 2 copy 2" class="s1" d="m827 599c-40.9 0-74-33.1-74-74 0-40.9 33.1-74 74-74 40.9 0 74 33.1 74 74 0 40.9-33.1 74-74 74z"/>
</svg>